<svg width="1152" height="700" viewBox="0 0 1152 700" fill="none" xmlns="http://www.w3.org/2000/svg">
<rect width="1152" height="700" fill="white"/>
<path d="M408 242C408 236.477 412.477 232 418 232H734C739.523 232 744 236.477 744 242V260H408V242Z" fill="#FFDC40"/>
<rect x="500" y="407" width="150" height="42" rx="21" fill="#833AE0"/>
<path d="M563.475 435.44H562.169V433H555.025V435.447H553.713L553.706 431.927H554.52C554.948 431.444 555.287 430.797 555.538 429.985C555.793 429.17 555.953 428.276 556.017 427.306L556.235 423.047H562.189V431.927H563.488L563.475 435.44ZM556.017 431.927H560.87V424.127H557.5L557.356 427.053C557.297 428.197 557.145 429.172 556.898 429.979C556.657 430.785 556.363 431.435 556.017 431.927ZM564.514 429.233C564.514 428.509 564.655 427.857 564.938 427.278C565.225 426.7 565.621 426.253 566.127 425.938C566.637 425.624 567.218 425.467 567.87 425.467C568.877 425.467 569.691 425.815 570.311 426.513C570.935 427.21 571.247 428.137 571.247 429.295V429.384C571.247 430.104 571.108 430.751 570.83 431.325C570.557 431.895 570.162 432.339 569.647 432.658C569.137 432.977 568.549 433.137 567.884 433.137C566.881 433.137 566.068 432.788 565.443 432.091C564.824 431.394 564.514 430.471 564.514 429.322V429.233ZM565.785 429.384C565.785 430.204 565.974 430.863 566.353 431.359C566.735 431.856 567.246 432.104 567.884 432.104C568.526 432.104 569.037 431.854 569.415 431.353C569.793 430.847 569.982 430.14 569.982 429.233C569.982 428.422 569.789 427.766 569.401 427.265C569.019 426.759 568.508 426.506 567.87 426.506C567.246 426.506 566.742 426.754 566.359 427.251C565.977 427.748 565.785 428.459 565.785 429.384ZM576.08 426.027C577.01 426.027 577.753 426.34 578.309 426.964C578.869 427.584 579.149 428.402 579.149 429.418V429.534C579.149 430.231 579.015 430.856 578.746 431.407C578.477 431.954 578.09 432.38 577.584 432.686C577.083 432.986 576.504 433.137 575.848 433.137C574.854 433.137 574.054 432.806 573.448 432.146C572.842 431.48 572.539 430.589 572.539 429.473V428.857C572.539 427.303 572.826 426.068 573.4 425.152C573.979 424.236 574.831 423.678 575.957 423.478C576.595 423.364 577.026 423.225 577.249 423.061C577.472 422.896 577.584 422.671 577.584 422.384H578.623C578.623 422.953 578.493 423.398 578.233 423.717C577.978 424.036 577.568 424.261 577.003 424.394L576.06 424.605C575.308 424.783 574.743 425.084 574.364 425.508C573.991 425.927 573.747 426.488 573.633 427.189C574.303 426.415 575.118 426.027 576.08 426.027ZM575.834 427.066C575.214 427.066 574.722 427.276 574.357 427.695C573.993 428.11 573.811 428.687 573.811 429.425V429.534C573.811 430.327 573.993 430.956 574.357 431.421C574.727 431.881 575.223 432.111 575.848 432.111C576.477 432.111 576.973 431.879 577.338 431.414C577.702 430.949 577.885 430.27 577.885 429.377C577.885 428.68 577.7 428.121 577.331 427.702C576.966 427.278 576.467 427.066 575.834 427.066ZM585.138 433C585.065 432.854 585.006 432.594 584.96 432.221C584.372 432.831 583.67 433.137 582.854 433.137C582.125 433.137 581.526 432.932 581.057 432.521C580.592 432.107 580.359 431.583 580.359 430.949C580.359 430.179 580.651 429.582 581.234 429.158C581.822 428.73 582.647 428.516 583.709 428.516H584.939V427.935C584.939 427.493 584.807 427.142 584.543 426.882C584.279 426.618 583.889 426.485 583.374 426.485C582.923 426.485 582.545 426.599 582.239 426.827C581.934 427.055 581.781 427.331 581.781 427.654H580.51C580.51 427.285 580.64 426.93 580.899 426.588C581.164 426.242 581.519 425.968 581.966 425.768C582.417 425.567 582.911 425.467 583.449 425.467C584.301 425.467 584.969 425.681 585.452 426.109C585.935 426.533 586.186 427.119 586.204 427.866V431.271C586.204 431.95 586.291 432.49 586.464 432.891V433H585.138ZM583.039 432.036C583.436 432.036 583.812 431.934 584.167 431.729C584.522 431.523 584.78 431.257 584.939 430.929V429.411H583.948C582.399 429.411 581.624 429.865 581.624 430.771C581.624 431.168 581.756 431.478 582.021 431.701C582.285 431.924 582.624 432.036 583.039 432.036ZM588.303 433V425.604H591.188C592.172 425.604 592.926 425.777 593.45 426.123C593.979 426.465 594.243 426.968 594.243 427.634C594.243 427.976 594.141 428.285 593.936 428.563C593.73 428.837 593.427 429.047 593.026 429.192C593.473 429.297 593.831 429.502 594.1 429.808C594.373 430.113 594.51 430.478 594.51 430.901C594.51 431.58 594.259 432.1 593.758 432.46C593.261 432.82 592.557 433 591.646 433H588.303ZM589.567 429.753V431.981H591.659C592.188 431.981 592.582 431.883 592.842 431.688C593.106 431.492 593.238 431.216 593.238 430.86C593.238 430.122 592.696 429.753 591.611 429.753H589.567ZM589.567 428.741H591.201C592.386 428.741 592.979 428.395 592.979 427.702C592.979 427.009 592.418 426.652 591.297 426.629H589.567V428.741ZM600.97 425.604H602.234V433H600.97V427.606L597.559 433H596.294V425.604H597.559V431.004L600.97 425.604ZM609.761 426.629H607.279V433H606.015V426.629H603.581V425.604H609.761V426.629ZM612.372 428.153H614.293C615.132 428.162 615.795 428.381 616.282 428.81C616.77 429.238 617.014 429.819 617.014 430.553C617.014 431.291 616.763 431.883 616.262 432.33C615.76 432.777 615.086 433 614.238 433H611.107V425.604H612.372V428.153ZM612.372 429.186V431.968H614.252C614.726 431.968 615.093 431.847 615.353 431.605C615.612 431.359 615.742 431.024 615.742 430.601C615.742 430.19 615.615 429.855 615.359 429.596C615.109 429.331 614.756 429.195 614.3 429.186H612.372Z" fill="white"/>
<rect x="500" y="407" width="42" height="42" rx="21" fill="#9953F1"/>
<path d="M521.608 427.661H524.384V428.857H521.608V432.002H520.337V428.857H517.562V427.661H520.337V424.756H521.608V427.661Z" fill="white"/>
<path d="M531.173 281.956H525.625V297H521.169V281.956H515.723V278.516H531.173V281.956ZM529.688 290.005C529.688 288.634 529.954 287.415 530.487 286.349C531.021 285.274 531.786 284.449 532.785 283.873C533.784 283.298 534.956 283.01 536.302 283.01C538.358 283.01 539.979 283.649 541.164 284.927C542.349 286.196 542.941 287.927 542.941 290.119V290.271C542.941 292.413 542.345 294.114 541.151 295.375C539.966 296.628 538.358 297.254 536.327 297.254C534.372 297.254 532.802 296.67 531.617 295.502C530.432 294.326 529.793 292.734 529.7 290.729L529.688 290.005ZM533.966 290.271C533.966 291.541 534.165 292.472 534.562 293.064C534.96 293.657 535.549 293.953 536.327 293.953C537.851 293.953 538.629 292.781 538.663 290.437V290.005C538.663 287.542 537.876 286.311 536.302 286.311C534.871 286.311 534.097 287.373 533.979 289.497L533.966 290.271ZM553.187 290.69H545.557V287.377H553.187V290.69ZM556.729 297V278.516H562.683C564.316 278.516 565.785 278.888 567.088 279.633C568.391 280.369 569.407 281.414 570.135 282.769C570.871 284.114 571.243 285.625 571.252 287.301V288.151C571.252 289.844 570.892 291.363 570.173 292.709C569.462 294.046 568.455 295.096 567.151 295.857C565.856 296.611 564.409 296.992 562.81 297H556.729ZM561.185 281.956V293.572H562.733C564.011 293.572 564.993 293.119 565.679 292.214C566.364 291.3 566.707 289.946 566.707 288.151V287.352C566.707 285.566 566.364 284.22 565.679 283.314C564.993 282.409 563.994 281.956 562.683 281.956H561.185ZM572.801 290.005C572.801 288.634 573.067 287.415 573.601 286.349C574.134 285.274 574.9 284.449 575.898 283.873C576.897 283.298 578.069 283.01 579.415 283.01C581.472 283.01 583.092 283.649 584.277 284.927C585.462 286.196 586.055 287.927 586.055 290.119V290.271C586.055 292.413 585.458 294.114 584.265 295.375C583.08 296.628 581.472 297.254 579.44 297.254C577.485 297.254 575.915 296.67 574.73 295.502C573.546 294.326 572.907 292.734 572.813 290.729L572.801 290.005ZM577.079 290.271C577.079 291.541 577.278 292.472 577.676 293.064C578.074 293.657 578.662 293.953 579.44 293.953C580.964 293.953 581.743 292.781 581.776 290.437V290.005C581.776 287.542 580.989 286.311 579.415 286.311C577.985 286.311 577.21 287.373 577.092 289.497L577.079 290.271ZM599.067 293.572H606.824V297H594.611V278.516H599.067V293.572ZM613.02 297H608.729V283.264H613.02V297ZM608.475 279.722C608.475 279.112 608.695 278.613 609.135 278.224C609.575 277.834 610.146 277.64 610.849 277.64C611.551 277.64 612.122 277.834 612.562 278.224C613.003 278.613 613.223 279.112 613.223 279.722C613.223 280.331 613.003 280.83 612.562 281.22C612.122 281.609 611.551 281.804 610.849 281.804C610.146 281.804 609.575 281.609 609.135 281.22C608.695 280.83 608.475 280.331 608.475 279.722ZM622.858 293.141C622.858 292.777 622.668 292.485 622.287 292.265C621.906 292.045 621.183 291.816 620.116 291.579C619.05 291.342 618.17 291.033 617.476 290.652C616.782 290.263 616.253 289.793 615.889 289.243C615.525 288.693 615.343 288.062 615.343 287.352C615.343 286.09 615.863 285.054 616.904 284.241C617.945 283.42 619.308 283.01 620.992 283.01C622.803 283.01 624.259 283.42 625.359 284.241C626.46 285.062 627.01 286.141 627.01 287.479H622.719C622.719 286.378 622.139 285.828 620.979 285.828C620.531 285.828 620.154 285.955 619.85 286.209C619.545 286.454 619.393 286.763 619.393 287.136C619.393 287.517 619.579 287.826 619.951 288.062C620.324 288.299 620.916 288.494 621.729 288.646C622.549 288.799 623.269 288.981 623.887 289.192C625.952 289.903 626.984 291.177 626.984 293.014C626.984 294.266 626.426 295.286 625.309 296.073C624.2 296.86 622.761 297.254 620.992 297.254C619.816 297.254 618.766 297.042 617.844 296.619C616.921 296.196 616.202 295.62 615.686 294.893C615.169 294.165 614.911 293.399 614.911 292.595H618.91C618.927 293.229 619.139 293.695 619.545 293.991C619.951 294.279 620.472 294.423 621.106 294.423C621.69 294.423 622.126 294.304 622.414 294.067C622.71 293.83 622.858 293.521 622.858 293.141ZM633.979 279.849V283.264H636.239V286.234H633.979V292.519C633.979 293.035 634.073 293.395 634.259 293.598C634.445 293.801 634.813 293.902 635.363 293.902C635.786 293.902 636.142 293.877 636.43 293.826V296.886C635.66 297.131 634.855 297.254 634.018 297.254C632.545 297.254 631.457 296.907 630.755 296.213C630.052 295.519 629.701 294.465 629.701 293.052V286.234H627.949V283.264H629.701V279.849H633.979Z" fill="black"/>
<rect x="436.5" y="349.5" width="285" height="39" rx="9.5" stroke="#C4C4C4"/>
<rect x="691.5" y="323" width="2.5" height="12.5" fill="#C4C4C4"/>
<rect x="699" y="326.75" width="2.5" height="7.5" transform="rotate(-90 699 326.75)" fill="#C4C4C4"/>
<rect x="699" y="331.75" width="2.5" height="10" transform="rotate(-90 699 331.75)" fill="#C4C4C4"/>
<rect x="699" y="336.75" width="2.5" height="15" transform="rotate(-90 699 336.75)" fill="#C4C4C4"/>
<path d="M692.75 338L689.502 333.312L695.998 333.313L692.75 338Z" fill="#C4C4C4"/>
<rect x="672.5" y="359.5" width="19" height="19" rx="9.5" stroke="#C4C4C4"/>
<path d="M678 365L686 373" stroke="#C4C4C4"/>
<path d="M678 373L686 365" stroke="#C4C4C4"/>
<rect x="408.5" y="232.5" width="335" height="235" rx="9.5" stroke="#C4C4C4"/>
</svg>
